<svg aria-hidden="true" style="position: absolute; width: 0; height: 0; overflow: hidden;" version="1.1" xmlns="http://www.w3.org/2000/svg" xmlns:xlink="http://www.w3.org/1999/xlink">
<defs>
<symbol id="icon-logo" viewBox="0 0 32 32">
<path d="M16 29.957c-7.709 0-13.958-6.249-13.958-13.957s6.249-13.958 13.958-13.958c7.709 0 13.957 6.249 13.957 13.958 0 0.564 0.458 1.021 1.021 1.021s1.021-0.458 1.021-1.021c0-8.836-7.163-16-16-16s-16 7.164-16 16c0 8.836 7.163 16 16 16 0.564 0 1.021-0.458 1.021-1.021s-0.457-1.021-1.021-1.021z"></path>
<path d="M14.979 5.107v11.234h-5.788c-0.563 0-1.021 0.458-1.021 1.021s0.458 1.022 1.021 1.022h6.809c0.564 0 1.021-0.458 1.021-1.022v-12.255c0-0.564-0.458-1.022-1.021-1.022s-1.021 0.458-1.021 1.022z"></path>
<path d="M24.17 16.34c-4.324 0-7.83 3.505-7.83 7.83s3.505 7.83 7.83 7.83c4.324 0 7.829-3.505 7.829-7.83s-3.505-7.83-7.829-7.83zM24.265 27.657c-0.34 0.45-0.981 0.539-1.431 0.199l-3.123-2.361c-0.449-0.339-0.538-0.98-0.198-1.431s0.981-0.539 1.43-0.199l2.308 1.745 3.254-4.305c0.34-0.45 0.981-0.539 1.431-0.199s0.539 0.981 0.199 1.431l-3.87 5.12z"></path>
</symbol>
<symbol id="icon-menu" viewBox="0 0 42 32">
<path d="M3.582 6.733h34.618c1.687 0 3.055-1.367 3.055-3.055s-1.367-3.055-3.055-3.055h-34.618c-1.687 0-3.055 1.367-3.055 3.055s1.367 3.055 3.055 3.055z"></path>
<path d="M38.2 12.842h-34.618c-1.687 0-3.055 1.367-3.055 3.055s1.367 3.055 3.055 3.055h34.618c1.687 0 3.055-1.367 3.055-3.055s-1.367-3.055-3.055-3.055z"></path>
<path d="M38.2 25.060h-34.618c-1.687 0-3.055 1.367-3.055 3.055s1.367 3.055 3.055 3.055h34.618c1.687 0 3.055-1.367 3.055-3.055s-1.367-3.055-3.055-3.055z"></path>
</symbol>
<symbol id="icon-telegram" viewBox="0 0 37 32">
<path fill="#fff" style="fill: var(--color1, #fff)" d="M14.649 21.211l-0.618 8.686c0.884 0 1.266-0.38 1.725-0.835l4.142-3.959 8.584 6.286c1.574 0.877 2.683 0.415 3.108-1.448l5.634-26.402 0.002-0.002c0.499-2.327-0.842-3.237-2.375-2.666l-33.119 12.68c-2.26 0.877-2.226 2.137-0.384 2.708l8.467 2.634 19.667-12.306c0.926-0.613 1.767-0.274 1.075 0.339l-15.909 14.285z"></path>
</symbol>
<symbol id="icon-whatsap" viewBox="0 0 31 32">
<path fill="#fff" style="fill: var(--color1, #fff)" d="M22.328 18.799l-0.011 0.096c-2.805-1.398-3.098-1.584-3.46-1.041-0.251 0.376-0.983 1.23-1.204 1.482-0.223 0.249-0.445 0.268-0.824 0.096-0.383-0.191-1.611-0.593-3.065-1.894-1.133-1.014-1.893-2.257-2.117-2.64-0.374-0.645 0.408-0.737 1.12-2.084 0.128-0.268 0.062-0.478-0.032-0.668-0.096-0.191-0.857-2.066-1.176-2.813-0.306-0.745-0.621-0.65-0.857-0.65-0.735-0.064-1.272-0.054-1.745 0.439-2.058 2.262-1.539 4.596 0.222 7.078 3.461 4.53 5.306 5.364 8.678 6.522 0.911 0.29 1.741 0.249 2.398 0.154 0.732-0.116 2.254-0.919 2.571-1.819 0.325-0.899 0.325-1.645 0.23-1.817-0.094-0.172-0.344-0.268-0.727-0.44z"></path>
<path fill="#fff" style="fill: var(--color1, #fff)" d="M26.17 4.951c-9.806-9.48-26.035-2.604-26.042 10.769 0 2.673 0.7 5.28 2.034 7.582l-2.163 7.859 8.079-2.107c10.082 5.446 22.524-1.785 22.529-13.326 0-4.051-1.581-7.863-4.457-10.727l0.019-0.050zM28.061 15.686c-0.008 9.735-10.694 15.815-19.146 10.846l-0.459-0.273-4.783 1.244 1.282-4.649-0.305-0.478c-5.26-8.373 0.783-19.315 10.746-19.315 3.385 0 6.562 1.32 8.954 3.711 2.391 2.371 3.71 5.548 3.71 8.915z"></path>
</symbol>
<symbol id="icon-Group-3" viewBox="0 0 39 32">
<path fill="#7700d1" style="fill: var(--color1, #7700d1)" d="M35.953 5.563l-2.862-2.862c-0.416-0.416-0.911-0.624-1.483-0.624s-1.067 0.208-1.483 0.624l-16.832 16.832-6.842-6.842c-0.416-0.416-0.911-0.624-1.483-0.624s-1.066 0.208-1.483 0.624l-2.862 2.862c-0.416 0.416-0.625 0.911-0.625 1.483s0.208 1.066 0.625 1.483l11.186 11.186c0.416 0.417 0.911 0.624 1.483 0.624s1.066-0.208 1.483-0.624l21.176-21.176c0.416-0.416 0.625-0.911 0.625-1.483s-0.208-1.067-0.624-1.483z"></path>
</symbol>
</defs>
</svg>
