<svg aria-hidden="true" style="position: absolute; width: 0; height: 0; overflow: hidden;" version="1.1" xmlns="http://www.w3.org/2000/svg" xmlns:xlink="http://www.w3.org/1999/xlink">
<defs>
<symbol id="icon-logo" viewBox="0 0 32 32">
<path d="M16 29.957c-7.709 0-13.958-6.249-13.958-13.957s6.249-13.958 13.958-13.958c7.709 0 13.957 6.249 13.957 13.958 0 0.564 0.458 1.021 1.021 1.021s1.021-0.458 1.021-1.021c0-8.836-7.163-16-16-16s-16 7.164-16 16c0 8.836 7.163 16 16 16 0.564 0 1.021-0.458 1.021-1.021s-0.457-1.021-1.021-1.021z"></path>
<path d="M14.979 5.107v11.234h-5.788c-0.563 0-1.021 0.458-1.021 1.021s0.458 1.022 1.021 1.022h6.809c0.564 0 1.021-0.458 1.021-1.022v-12.255c0-0.564-0.458-1.022-1.021-1.022s-1.021 0.458-1.021 1.022z"></path>
<path d="M24.17 16.34c-4.324 0-7.83 3.505-7.83 7.83s3.505 7.83 7.83 7.83c4.324 0 7.829-3.505 7.829-7.83s-3.505-7.83-7.829-7.83zM24.265 27.657c-0.34 0.45-0.981 0.539-1.431 0.199l-3.123-2.361c-0.449-0.339-0.538-0.98-0.198-1.431s0.981-0.539 1.43-0.199l2.308 1.745 3.254-4.305c0.34-0.45 0.981-0.539 1.431-0.199s0.539 0.981 0.199 1.431l-3.87 5.12z"></path>
</symbol>
<symbol id="icon-menu" viewBox="0 0 42 32">
<path d="M3.582 6.733h34.618c1.687 0 3.055-1.367 3.055-3.055s-1.367-3.055-3.055-3.055h-34.618c-1.687 0-3.055 1.367-3.055 3.055s1.367 3.055 3.055 3.055z"></path>
<path d="M38.2 12.842h-34.618c-1.687 0-3.055 1.367-3.055 3.055s1.367 3.055 3.055 3.055h34.618c1.687 0 3.055-1.367 3.055-3.055s-1.367-3.055-3.055-3.055z"></path>
<path d="M38.2 25.060h-34.618c-1.687 0-3.055 1.367-3.055 3.055s1.367 3.055 3.055 3.055h34.618c1.687 0 3.055-1.367 3.055-3.055s-1.367-3.055-3.055-3.055z"></path>
</symbol>
<symbol id="icon-telegram" viewBox="0 0 37 32">
<path fill="#fff" style="fill: var(--color1, #fff)" d="M14.649 21.211l-0.618 8.686c0.884 0 1.266-0.38 1.725-0.835l4.142-3.959 8.584 6.286c1.574 0.877 2.683 0.415 3.108-1.448l5.634-26.402 0.002-0.002c0.499-2.327-0.842-3.237-2.375-2.666l-33.119 12.68c-2.26 0.877-2.226 2.137-0.384 2.708l8.467 2.634 19.667-12.306c0.926-0.613 1.767-0.274 1.075 0.339l-15.909 14.285z"></path>
</symbol>
<symbol id="icon-whatsap" viewBox="0 0 31 32">
<path fill="#fff" style="fill: var(--color1, #fff)" d="M22.328 18.799l-0.011 0.096c-2.805-1.398-3.098-1.584-3.46-1.041-0.251 0.376-0.983 1.23-1.204 1.482-0.223 0.249-0.445 0.268-0.824 0.096-0.383-0.191-1.611-0.593-3.065-1.894-1.133-1.014-1.893-2.257-2.117-2.64-0.374-0.645 0.408-0.737 1.12-2.084 0.128-0.268 0.062-0.478-0.032-0.668-0.096-0.191-0.857-2.066-1.176-2.813-0.306-0.745-0.621-0.65-0.857-0.65-0.735-0.064-1.272-0.054-1.745 0.439-2.058 2.262-1.539 4.596 0.222 7.078 3.461 4.53 5.306 5.364 8.678 6.522 0.911 0.29 1.741 0.249 2.398 0.154 0.732-0.116 2.254-0.919 2.571-1.819 0.325-0.899 0.325-1.645 0.23-1.817-0.094-0.172-0.344-0.268-0.727-0.44z"></path>
<path fill="#fff" style="fill: var(--color1, #fff)" d="M26.17 4.951c-9.806-9.48-26.035-2.604-26.042 10.769 0 2.673 0.7 5.28 2.034 7.582l-2.163 7.859 8.079-2.107c10.082 5.446 22.524-1.785 22.529-13.326 0-4.051-1.581-7.863-4.457-10.727l0.019-0.050zM28.061 15.686c-0.008 9.735-10.694 15.815-19.146 10.846l-0.459-0.273-4.783 1.244 1.282-4.649-0.305-0.478c-5.26-8.373 0.783-19.315 10.746-19.315 3.385 0 6.562 1.32 8.954 3.711 2.391 2.371 3.71 5.548 3.71 8.915z"></path>
</symbol>
<symbol id="icon-Group-3" viewBox="0 0 39 32">
<path fill="#7700d1" style="fill: var(--color1, #7700d1)" d="M35.953 5.563l-2.862-2.862c-0.416-0.416-0.911-0.624-1.483-0.624s-1.067 0.208-1.483 0.624l-16.832 16.832-6.842-6.842c-0.416-0.416-0.911-0.624-1.483-0.624s-1.066 0.208-1.483 0.624l-2.862 2.862c-0.416 0.416-0.625 0.911-0.625 1.483s0.208 1.066 0.625 1.483l11.186 11.186c0.416 0.417 0.911 0.624 1.483 0.624s1.066-0.208 1.483-0.624l21.176-21.176c0.416-0.416 0.625-0.911 0.625-1.483s-0.208-1.067-0.624-1.483z"></path>
</symbol>
<symbol id="icon-info" viewBox="0 0 32 32">
<path fill="#4c0085" style="fill: var(--color1, #4c0085)" d="M16.63 0.709c-8.451 0-15.304 6.852-15.304 15.304s6.852 15.305 15.304 15.305c8.451 0 15.305-6.854 15.305-15.305s-6.854-15.304-15.305-15.304zM19.816 24.428c-0.788 0.311-1.415 0.547-1.885 0.71-0.469 0.163-1.014 0.245-1.635 0.245-0.954 0-1.696-0.233-2.225-0.698s-0.792-1.055-0.792-1.771c0-0.279 0.019-0.564 0.058-0.854 0.040-0.29 0.104-0.617 0.19-0.983l0.986-3.483c0.087-0.334 0.162-0.652 0.222-0.947 0.060-0.298 0.088-0.571 0.088-0.82 0-0.443-0.092-0.754-0.275-0.929-0.185-0.175-0.534-0.26-1.053-0.26-0.254 0-0.516 0.038-0.784 0.117-0.266 0.082-0.496 0.155-0.685 0.228l0.26-1.073c0.645-0.263 1.263-0.488 1.853-0.675 0.589-0.189 1.147-0.282 1.671-0.282 0.947 0 1.678 0.231 2.192 0.687 0.512 0.457 0.77 1.052 0.77 1.783 0 0.152-0.018 0.418-0.053 0.799-0.035 0.382-0.101 0.731-0.197 1.051l-0.981 3.472c-0.080 0.279-0.151 0.597-0.216 0.953-0.063 0.356-0.095 0.628-0.095 0.811 0 0.461 0.102 0.776 0.31 0.943 0.205 0.167 0.564 0.251 1.071 0.251 0.24 0 0.508-0.043 0.811-0.126 0.301-0.083 0.518-0.157 0.656-0.22l-0.263 1.072zM19.642 10.334c-0.457 0.425-1.008 0.637-1.652 0.637-0.642 0-1.197-0.212-1.658-0.637-0.459-0.425-0.691-0.942-0.691-1.546 0-0.602 0.233-1.121 0.691-1.55 0.461-0.43 1.016-0.644 1.658-0.644 0.644 0 1.196 0.214 1.652 0.644 0.457 0.429 0.687 0.947 0.687 1.55 0 0.605-0.229 1.121-0.687 1.546z"></path>
</symbol>
<symbol id="icon-caring" viewBox="0 0 53 32">
<path fill="#fff" style="fill: var(--color1, #fff)" d="M37.413 1.479c4.508 1.046 6.233 3.682 8.395 7.311h-8.395v-7.311zM11.065 9.095c0.883 0 1.523 0.426 1.523 1.422 0 0.84-0.68 1.521-1.519 1.523h-9.204c-0.841 0-1.523 0.682-1.523 1.524s0.682 1.523 1.523 1.523h13.711c0.849 0 1.529 0.682 1.529 1.523s-0.682 1.523-1.523 1.523h-13.717c-0.841 0-1.523 0.682-1.523 1.523s0.682 1.523 1.523 1.523h3.352v4.57c0 0.841 0.682 1.523 1.523 1.523h3.062c0.546 2.689 2.922 4.672 5.723 4.672s5.177-1.983 5.723-4.672h15.469c0.546 2.689 2.922 4.672 5.723 4.672s5.177-1.983 5.723-4.672h2.656c0.841 0 1.523-0.682 1.523-1.523v-9.141c0-4.47-4.715-4.767-4.719-4.773h-11.734c-0.841 0-1.523-0.682-1.523-1.523v-9.141h-27.625c-0.841 0-1.523 0.682-1.523 1.523v3.352h-1.828c-0.841 0-1.523 0.682-1.523 1.523s0.682 1.523 1.523 1.523h7.676zM44.415 24.132c1.091 1.091 1.091 2.86 0 3.95-1.754 1.754-4.768 0.506-4.768-1.975s3.013-3.729 4.768-1.975zM17.501 24.132c1.091 1.091 1.091 2.86 0 3.95-1.754 1.754-4.768 0.506-4.768-1.975s3.014-3.729 4.768-1.975z"></path>
</symbol>
<symbol id="icon-dindon" viewBox="0 0 32 32">
<path fill="#fff" style="fill: var(--color1, #fff)" d="M16.305 31.331c1.847 0 3.438-1.116 4.136-2.708h-8.272c0.698 1.593 2.289 2.708 4.136 2.708z"></path>
<path fill="#fff" style="fill: var(--color1, #fff)" d="M25.633 15.433v-1.978c0-4.202-2.793-7.764-6.62-8.927v-1.304c0-1.493-1.215-2.708-2.708-2.708s-2.708 1.215-2.708 2.708v1.304c-3.827 1.163-6.62 4.725-6.62 8.927v1.978c0 3.691-1.407 7.191-3.962 9.856-0.25 0.261-0.321 0.646-0.179 0.979s0.469 0.549 0.83 0.549h25.278c0.362 0 0.688-0.216 0.83-0.549s0.072-0.718-0.179-0.979c-2.555-2.664-3.962-6.164-3.962-9.856zM17.207 4.171c-0.297-0.029-0.598-0.044-0.903-0.044s-0.606 0.015-0.903 0.044v-0.947c0-0.498 0.405-0.903 0.903-0.903s0.903 0.405 0.903 0.903v0.947z"></path>
<path fill="#fff" style="fill: var(--color1, #fff)" d="M28.041 13.456c0 0.498 0.404 0.903 0.903 0.903s0.903-0.404 0.903-0.903c0-3.617-1.409-7.018-3.966-9.575-0.353-0.353-0.924-0.353-1.277 0s-0.352 0.924 0 1.277c2.217 2.217 3.438 5.164 3.438 8.299z"></path>
<path fill="#fff" style="fill: var(--color1, #fff)" d="M3.666 14.358c0.499 0 0.903-0.404 0.903-0.903 0-3.135 1.221-6.082 3.437-8.299 0.353-0.353 0.353-0.924 0-1.277s-0.924-0.353-1.277 0c-2.558 2.558-3.966 5.958-3.966 9.575 0 0.499 0.404 0.903 0.903 0.903z"></path>
</symbol>
<symbol id="icon-tell" viewBox="0 0 32 32">
<path fill="#fff" style="fill: var(--color1, #fff)" d="M29.224 20.721c-1.881 0-3.727-0.294-5.477-0.872-0.858-0.292-1.912-0.024-2.435 0.513l-3.454 2.608c-4.006-2.138-6.473-4.605-8.582-8.581l2.531-3.364c0.658-0.657 0.893-1.616 0.611-2.516-0.581-1.759-0.876-3.605-0.876-5.487 0-1.359-1.106-2.465-2.465-2.465h-5.642c-1.359 0-2.465 1.106-2.465 2.465 0 15.58 12.675 28.255 28.255 28.255 1.359 0 2.465-1.106 2.465-2.465v-5.626c-0-1.359-1.106-2.465-2.465-2.465z"></path>
</symbol>
</defs>
</svg>
