<svg aria-hidden="true" style="position: absolute; width: 0; height: 0; overflow: hidden;" version="1.1" xmlns="http://www.w3.org/2000/svg" xmlns:xlink="http://www.w3.org/1999/xlink">
<defs>
<symbol id="icon-logo" viewBox="0 0 32 32">
<path d="M16 29.957c-7.709 0-13.958-6.249-13.958-13.957s6.249-13.958 13.958-13.958c7.709 0 13.957 6.249 13.957 13.958 0 0.564 0.458 1.021 1.021 1.021s1.021-0.458 1.021-1.021c0-8.836-7.163-16-16-16s-16 7.164-16 16c0 8.836 7.163 16 16 16 0.564 0 1.021-0.458 1.021-1.021s-0.457-1.021-1.021-1.021z"></path>
<path d="M14.979 5.107v11.234h-5.788c-0.563 0-1.021 0.458-1.021 1.021s0.458 1.022 1.021 1.022h6.809c0.564 0 1.021-0.458 1.021-1.022v-12.255c0-0.564-0.458-1.022-1.021-1.022s-1.021 0.458-1.021 1.022z"></path>
<path d="M24.17 16.34c-4.324 0-7.83 3.505-7.83 7.83s3.505 7.83 7.83 7.83c4.324 0 7.829-3.505 7.829-7.83s-3.505-7.83-7.829-7.83zM24.265 27.657c-0.34 0.45-0.981 0.539-1.431 0.199l-3.123-2.361c-0.449-0.339-0.538-0.98-0.198-1.431s0.981-0.539 1.43-0.199l2.308 1.745 3.254-4.305c0.34-0.45 0.981-0.539 1.431-0.199s0.539 0.981 0.199 1.431l-3.87 5.12z"></path>
</symbol>
<symbol id="icon-menu" viewBox="0 0 42 32">
<path d="M3.582 6.733h34.618c1.687 0 3.055-1.367 3.055-3.055s-1.367-3.055-3.055-3.055h-34.618c-1.687 0-3.055 1.367-3.055 3.055s1.367 3.055 3.055 3.055z"></path>
<path d="M38.2 12.842h-34.618c-1.687 0-3.055 1.367-3.055 3.055s1.367 3.055 3.055 3.055h34.618c1.687 0 3.055-1.367 3.055-3.055s-1.367-3.055-3.055-3.055z"></path>
<path d="M38.2 25.060h-34.618c-1.687 0-3.055 1.367-3.055 3.055s1.367 3.055 3.055 3.055h34.618c1.687 0 3.055-1.367 3.055-3.055s-1.367-3.055-3.055-3.055z"></path>
</symbol>
</defs>
</svg>
